<?xml version="1.0" encoding="UTF-8" standalone="no"?>
<!-- Created with Inkscape (http://www.inkscape.org/) -->

<svg
   width="82.015099mm"
   height="11.765667mm"
   viewBox="0 0 82.015099 11.765667"
   version="1.1"
   id="svg1"
   inkscape:version="1.3 (0e150ed, 2023-07-21)"
   sodipodi:docname="education.svg"
   xmlns:inkscape="http://www.inkscape.org/namespaces/inkscape"
   xmlns:sodipodi="http://sodipodi.sourceforge.net/DTD/sodipodi-0.dtd"
   xmlns="http://www.w3.org/2000/svg"
   xmlns:svg="http://www.w3.org/2000/svg">
  <sodipodi:namedview
     id="namedview1"
     pagecolor="#ffffff"
     bordercolor="#000000"
     borderopacity="0.25"
     inkscape:showpageshadow="2"
     inkscape:pageopacity="0.0"
     inkscape:pagecheckerboard="0"
     inkscape:deskcolor="#d1d1d1"
     inkscape:document-units="mm"
     inkscape:zoom="1.3394316"
     inkscape:cx="289.67512"
     inkscape:cy="169.47487"
     inkscape:window-width="1728"
     inkscape:window-height="979"
     inkscape:window-x="0"
     inkscape:window-y="38"
     inkscape:window-maximized="1"
     inkscape:current-layer="layer1" />
  <defs
     id="defs1" />
  <g
     inkscape:label="Layer 1"
     inkscape:groupmode="layer"
     id="layer1"
     transform="translate(-2.431942,-1.1995107)">
    <path
       style="font-size:16.9333px;line-height:0;font-family:'.SF Compact Rounded';-inkscape-font-specification:'.SF Compact Rounded';letter-spacing:1.51342px;word-spacing:0px;fill:#352ee7;stroke-width:0.264583;fill-opacity:1"
       d="m 2.431942,11.534777 q 0,0.644921 0.297655,0.917772 Q 3.035521,12.7254 3.738319,12.7254 H 8.50081 q 0.32246,0 0.512629,-0.157096 0.190169,-0.157096 0.190169,-0.438215 0,-0.28112 -0.190169,-0.438216 Q 8.82327,11.526509 8.50081,11.526509 H 3.746588 V 7.5577665 h 4.456566 q 0.322461,0 0.51263,-0.1570961 0.190168,-0.157096 0.190168,-0.4382153 0,-0.2811192 -0.190168,-0.4382152 Q 8.525615,6.3588756 8.203154,6.3588756 H 3.746588 V 2.6381798 H 8.50081 q 0.32246,0 0.512629,-0.1570961 0.190169,-0.157096 0.190169,-0.4382152 0,-0.2811193 -0.190169,-0.4382153 Q 8.82327,1.4392889 8.50081,1.4392889 H 3.738319 q -0.702798,0 -1.008722,0.272851 Q 2.431942,1.984991 2.431942,2.6299116 Z m 9.045762,0 q 0,0.644921 0.297656,0.917772 0.305924,0.272851 1.008722,0.272851 h 2.232417 q 2.447391,0 3.695891,-1.422133 1.248501,-1.4304005 1.248501,-4.2167887 0,-2.7946559 -1.248501,-4.2167885 -1.2485,-1.4304009 -3.695891,-1.4304009 h -2.232417 q -0.702798,0 -1.008722,0.272851 -0.297656,0.2728511 -0.297656,0.9177717 z m 1.314646,-0.0083 V 2.6299116 h 2.199345 q 1.819006,0 2.720242,1.1162087 0.909503,1.1079405 0.909503,3.340358 0,2.2241492 -0.901235,3.3320907 -0.901235,1.10794 -2.72851,1.10794 z M 30.445321,8.8062665 v -6.722057 q 0,-0.3389967 -0.181901,-0.5291656 -0.173633,-0.1984371 -0.479556,-0.1984371 -0.305924,0 -0.479557,0.1984371 -0.173632,0.1901689 -0.173632,0.5291656 v 6.722057 q 0,1.3477195 -0.793749,2.1580045 -0.793748,0.802016 -2.12493,0.802016 -1.331183,0 -2.124931,-0.802016 -0.793749,-0.802017 -0.793749,-2.1580045 v -6.722057 q 0,-0.3389967 -0.1819,-0.5291656 -0.173633,-0.1984371 -0.479557,-0.1984371 -0.305924,0 -0.479556,0.1984371 -0.173632,0.1901689 -0.173632,0.5291656 v 6.688984 q 0,1.2485005 0.496092,2.1910775 0.504361,0.942576 1.446938,1.471742 0.942576,0.529165 2.290295,0.529165 1.265036,0 2.215881,-0.520897 0.959112,-0.520898 1.488278,-1.455206 0.529166,-0.942576 0.529166,-2.1828085 z m 2.191413,-0.793748 q 0,2.3564405 1.141014,3.6545505 1.149281,1.298109 3.224603,1.298109 1.01699,0 1.819006,-0.305924 0.802017,-0.314192 1.380792,-0.901235 0.413411,-0.429947 0.661457,-0.92604 0.256315,-0.504361 0.256315,-0.8681625 0,-0.272851 -0.157096,-0.429947 -0.148828,-0.165364 -0.438216,-0.165364 -0.223241,0 -0.372069,0.124023 -0.14056,0.124023 -0.297656,0.438215 -0.314192,0.6283845 -0.735871,1.0335275 -0.413411,0.405142 -0.934308,0.603579 -0.512629,0.198437 -1.141013,0.198437 -1.488279,0 -2.290295,-0.967381 Q 33.95138,9.8232565 33.95138,8.0125185 v -1.85208 q 0,-1.8024704 0.802017,-2.7781195 0.802016,-0.9839174 2.290295,-0.9839174 0.620116,0 1.116208,0.2067053 0.504361,0.1984371 0.917772,0.6118478 0.413411,0.4134106 0.744139,1.0583312 0.165364,0.3307286 0.32246,0.4547518 0.165365,0.1157549 0.396875,0.1157549 0.264582,0 0.421679,-0.157096 0.157096,-0.1653643 0.157096,-0.4464835 0,-0.3555332 -0.248047,-0.8598941 Q 40.623828,2.877958 40.202149,2.4480109 39.615106,1.8361631 38.813089,1.5219711 38.019341,1.1995107 37.002351,1.1995107 q -2.075322,0 -3.224603,1.3063777 -1.141014,1.3063776 -1.141014,3.6545501 z m 10.418287,4.8203685 q 0.272851,0 0.438215,-0.14056 0.173633,-0.140559 0.28112,-0.471288 l 1.000453,-2.9682885 h 4.266398 l 1.000454,2.9682885 q 0.115755,0.330729 0.281119,0.471288 0.165364,0.14056 0.438215,0.14056 0.289388,0 0.454752,-0.148828 0.173633,-0.157096 0.173633,-0.421679 0,-0.206705 -0.09095,-0.454752 L 47.809243,2.0842095 Q 47.676952,1.7121399 47.461979,1.5302393 47.255273,1.3483386 46.908008,1.3483386 q -0.347265,0 -0.55397,0.1819007 -0.206705,0.1819006 -0.347265,0.5539702 l -3.489186,9.7234185 q -0.04134,0.115755 -0.06614,0.23151 -0.02481,0.107487 -0.02481,0.223242 0,0.264583 0.173632,0.421679 0.173633,0.148828 0.454752,0.148828 z m 2.091858,-4.6632725 1.736325,-5.1014876 h 0.04961 l 1.736325,5.1014876 z m 10.269454,4.6384675 q 0.305924,0 0.479557,-0.198437 0.1819,-0.198437 0.1819,-0.529166 V 2.6381798 h 2.844266 q 0.32246,0 0.512629,-0.1570961 0.190169,-0.157096 0.190169,-0.4382152 0,-0.2811193 -0.190169,-0.4382153 -0.190169,-0.1653643 -0.512629,-0.1653643 h -6.994908 q -0.322461,0 -0.51263,0.1653643 -0.190169,0.157096 -0.190169,0.4382153 0,0.2811192 0.190169,0.4382152 0.190169,0.1570961 0.51263,0.1570961 h 2.835997 v 9.4422992 q 0,0.330729 0.173632,0.529166 0.173633,0.198437 0.479556,0.198437 z m 6.342058,0 q 0.305923,0 0.479556,-0.198437 0.181901,-0.198437 0.181901,-0.529166 V 2.0842095 q 0,-0.3389967 -0.181901,-0.5291656 -0.173633,-0.1984371 -0.479556,-0.1984371 -0.305924,0 -0.479557,0.1984371 -0.173632,0.1901689 -0.173632,0.5291656 v 9.9962695 q 0,0.330729 0.173632,0.529166 0.173633,0.198437 0.479557,0.198437 z m 4.308076,-6.5153521 q 0,-1.1988909 0.380338,-2.0670532 0.388606,-0.8764306 1.091404,-1.3477187 0.711067,-0.4795564 1.678447,-0.4795564 0.967381,0 1.670179,0.4795564 0.711067,0.4712881 1.091405,1.3477187 0.388606,0.8681623 0.388606,2.0670532 v 1.6949836 q 0,1.174086 -0.388606,2.0257125 -0.380338,0.843358 -1.091405,1.29811 -0.702798,0.454751 -1.670179,0.454751 -0.96738,0 -1.678447,-0.454751 -0.702798,-0.454752 -1.091404,-1.29811 -0.380338,-0.8516265 -0.380338,-2.0257125 z m -1.314645,1.6949836 q 0,2.3151005 1.182354,3.6462825 1.182354,1.331182 3.28248,1.331182 1.380792,0 2.381246,-0.595311 1.000454,-0.60358 1.537887,-1.719788 0.545702,-1.1162095 0.545702,-2.6623655 V 6.2927299 q 0,-1.5709605 -0.545702,-2.7119738 -0.537433,-1.1410134 -1.537887,-1.7611294 -1.000454,-0.620116 -2.381246,-0.620116 -1.372523,0 -2.372977,0.620116 -1.000453,0.620116 -1.546155,1.7611294 -0.545702,1.1410133 -0.545702,2.7119738 z M 77.328104,12.080479 V 3.696511 h 0.05788 l 5.357802,8.383968 q 0.264582,0.413411 0.46302,0.570507 0.198437,0.157096 0.496092,0.157096 0.744139,0 0.744139,-0.884699 V 2.0842095 q 0,-0.3389967 -0.173632,-0.5291656 -0.165364,-0.1984371 -0.471288,-0.1984371 -0.305924,0 -0.471288,0.1984371 -0.165365,0.1901689 -0.165365,0.5291656 v 8.3839685 h -0.06615 L 77.791124,2.1751599 Q 77.559614,1.8030903 77.344641,1.5798485 77.129667,1.3566068 76.815475,1.3566068 q -0.768944,0 -0.768944,0.8846988 v 9.8391734 q 0,0.330729 0.165364,0.529166 0.165365,0.198437 0.471289,0.198437 0.305923,0 0.471288,-0.198437 0.173632,-0.198437 0.173632,-0.529166 z"
       id="text1"
       aria-label="EDUCATION" />
  </g>
</svg>
